<?xml version="1.0" standalone="no"?><!DOCTYPE svg PUBLIC "-//W3C//DTD SVG 1.1//EN" "http://www.w3.org/Graphics/SVG/1.1/DTD/svg11.dtd"><svg t="1637921568573" class="icon" viewBox="0 0 1275 1024" version="1.1" xmlns="http://www.w3.org/2000/svg" p-id="3569" xmlns:xlink="http://www.w3.org/1999/xlink" width="39.84375" height="32"><defs><style type="text/css"></style></defs><path d="M848.867556 555.534222m-426.666667 0a426.666667 426.666667 0 1 0 853.333333 0 426.666667 426.666667 0 1 0-853.333333 0Z" fill="#4C893D" p-id="3570"></path><path d="M848.867556 219.889778A334.293333 334.293333 0 1 1 718.222222 246.229333a333.496889 333.496889 0 0 1 130.616889-26.339555m0-91.022222c-235.633778 0-426.666667 191.032889-426.666667 426.666666s191.032889 426.666667 426.666667 426.666667 426.666667-191.018667 426.666667-426.666667-191.018667-426.666667-426.666667-426.666666z" fill="#471D18" p-id="3571"></path><path d="M512 512m-512 0a512 512 0 1 0 1024 0 512 512 0 1 0-1024 0Z" fill="#59AD47" p-id="3572"></path><path d="M512 91.022222a419.228444 419.228444 0 1 1-163.84 33.038222A418.446222 418.446222 0 0 1 512 91.022222m0-91.022222C229.233778 0 0 229.233778 0 512s229.233778 512 512 512 512-229.233778 512-512S794.766222 0 512 0z" fill="#471D18" p-id="3573"></path><path d="M512 512m-156.444444 0a156.444444 156.444444 0 1 0 312.888888 0 156.444444 156.444444 0 1 0-312.888888 0Z" fill="#FFDC4A" p-id="3574"></path><path d="M466.488889 210.545778m45.511111 0l0 0q45.511111 0 45.511111 45.511111l0 122.311111q0 45.511111-45.511111 45.511111l0 0q-45.511111 0-45.511111-45.511111l0-122.311111q0-45.511111 45.511111-45.511111Z" fill="#59AD47" p-id="3575"></path><path d="M512 210.488889a45.639111 45.639111 0 0 0-45.511111 45.511111v122.311111a45.511111 45.511111 0 0 0 91.022222 0v-122.311111a45.639111 45.639111 0 0 0-45.511111-45.511111z" fill="#471D18" p-id="3576"></path><path d="M466.488889 600.120889m45.511111 0l0 0q45.511111 0 45.511111 45.511111l0 122.311111q0 45.511111-45.511111 45.511111l0 0q-45.511111 0-45.511111-45.511111l0-122.311111q0-45.511111 45.511111-45.511111Z" fill="#59AD47" p-id="3577"></path><path d="M512 600.177778a45.639111 45.639111 0 0 0-45.511111 45.511111v122.311111a45.511111 45.511111 0 0 0 91.022222 0v-122.311111a45.639111 45.639111 0 0 0-45.511111-45.511111z" fill="#471D18" p-id="3578"></path><path d="M600.120889 466.488889m45.511111 0l122.311111 0q45.511111 0 45.511111 45.511111l0 0q0 45.511111-45.511111 45.511111l-122.311111 0q-45.511111 0-45.511111-45.511111l0 0q0-45.511111 45.511111-45.511111Z" fill="#59AD47" p-id="3579"></path><path d="M768 466.488889h-122.311111a45.511111 45.511111 0 0 0 0 91.022222h122.311111a45.511111 45.511111 0 0 0 0-91.022222z" fill="#471D18" p-id="3580"></path><path d="M210.545778 466.488889m45.511111 0l122.311111 0q45.511111 0 45.511111 45.511111l0 0q0 45.511111-45.511111 45.511111l-122.311111 0q-45.511111 0-45.511111-45.511111l0 0q0-45.511111 45.511111-45.511111Z" fill="#59AD47" p-id="3581"></path><path d="M378.311111 466.488889h-122.311111a45.511111 45.511111 0 1 0 0 91.022222h122.311111a45.511111 45.511111 0 0 0 0-91.022222z" fill="#471D18" p-id="3582"></path><path d="M542.132118 417.511342m32.181215-32.181215l86.487016-86.487016q32.181215-32.181215 64.362431 0l0 0q32.181215 32.181215 0 64.362431l-86.487016 86.487016q-32.181215 32.181215-64.362431 0l0 0q-32.181215-32.181215 0-64.362431Z" fill="#59AD47" p-id="3583"></path><path d="M692.977778 285.568a45.383111 45.383111 0 0 0-32.184889 13.269333l-86.485333 86.485334a45.667556 45.667556 0 0 0 0 64.369777 45.667556 45.667556 0 0 0 64.369777 0l86.485334-86.485333a45.667556 45.667556 0 0 0 0-64.369778 45.411556 45.411556 0 0 0-32.184889-13.269333z" fill="#471D18" p-id="3584"></path><path d="M266.66145 692.974596m32.181215-32.181215l86.487016-86.487016q32.181215-32.181215 64.362431 0l0 0q32.181215 32.181215 0 64.362431l-86.487017 86.487016q-32.181215 32.181215-64.36243 0l0 0q-32.181215-32.181215 0-64.362431Z" fill="#59AD47" p-id="3585"></path><path d="M417.507556 561.038222a45.411556 45.411556 0 0 0-32.184889 13.269334l-86.485334 86.485333a45.667556 45.667556 0 0 0 0 64.369778 45.667556 45.667556 0 0 0 64.369778 0l86.485333-86.485334a45.667556 45.667556 0 0 0 0-64.369777 45.383111 45.383111 0 0 0-32.184888-13.269334z" fill="#471D18" p-id="3586"></path><path d="M542.122061 606.484492m32.181216-32.181215l0 0q32.181215-32.181215 64.36243 0l86.487016 86.487016q32.181215 32.181215 0 64.36243l0 0q-32.181215 32.181215-64.36243 0l-86.487016-86.487016q-32.181215-32.181215 0-64.36243Z" fill="#59AD47" p-id="3587"></path><path d="M606.492444 561.038222a45.383111 45.383111 0 0 0-32.184888 13.269334 45.667556 45.667556 0 0 0 0 64.369777l86.485333 86.485334a45.667556 45.667556 0 0 0 64.369778 0 45.667556 45.667556 0 0 0 0-64.369778l-86.485334-86.485333a45.411556 45.411556 0 0 0-32.184889-13.269334z" fill="#471D18" p-id="3588"></path><path d="M266.671923 331.02842m32.181215-32.181215l0 0q32.181215-32.181215 64.362431 0l86.487016 86.487016q32.181215 32.181215 0 64.362431l0 0q-32.181215 32.181215-64.362431 0l-86.487016-86.487016q-32.181215-32.181215 0-64.362431Z" fill="#59AD47" p-id="3589"></path><path d="M331.022222 285.568a45.411556 45.411556 0 0 0-32.184889 13.269333 45.667556 45.667556 0 0 0 0 64.369778l86.485334 86.485333a45.667556 45.667556 0 0 0 64.369777 0 45.667556 45.667556 0 0 0 0-64.369777l-86.485333-86.485334a45.383111 45.383111 0 0 0-32.184889-13.269333z" fill="#471D18" p-id="3590"></path></svg>