<?xml version="1.0" standalone="no"?>
<!DOCTYPE svg PUBLIC "-//W3C//DTD SVG 20010904//EN"
 "http://www.w3.org/TR/2001/REC-SVG-20010904/DTD/svg10.dtd">
<svg version="1.0" xmlns="http://www.w3.org/2000/svg"
 width="700.000000pt" height="700.000000pt" viewBox="0 0 700.000000 700.000000"
 preserveAspectRatio="xMidYMid meet">
<metadata>
Created by potrace 1.14, written by Peter Selinger 2001-2017
</metadata>
<g transform="translate(0.000000,700.000000) scale(0.100000,-0.100000)"
fill="#000000" stroke="none">
<path d="M2944 6301 c-63 -38 -71 -132 -15 -183 l30 -26 -2 -595 c-1 -328 -4
-597 -7 -600 -5 -4 -100 -75 -170 -127 -18 -14 -38 -29 -44 -35 -6 -5 -56 -43
-111 -84 -81 -61 -181 -137 -260 -199 -5 -4 -39 -29 -75 -56 -36 -27 -101 -77
-145 -111 -44 -34 -129 -99 -190 -145 -278 -212 -255 -191 -255 -231 0 -31
-23 -44 -51 -29 -21 12 -33 5 -162 -95 -60 -46 -77 -65 -77 -85 0 -32 -15 -57
-24 -41 -4 6 -14 11 -22 11 -12 0 -109 -66 -148 -101 -9 -8 -49 -39 -91 -69
-90 -66 -110 -106 -82 -166 23 -47 53 -56 190 -56 64 0 117 -4 117 -8 0 -4 12
-16 28 -26 37 -26 207 -32 972 -36 l605 -3 2 -112 2 -113 -32 -1 c-18 0 -327
-1 -687 -3 -488 -2 -665 -6 -695 -15 -85 -27 -169 -77 -232 -139 -73 -73 -86
-98 -67 -127 18 -28 -1 -95 -27 -95 -25 0 -32 -16 -30 -72 2 -52 61 -220 88
-250 9 -10 27 -18 40 -18 28 0 29 -14 3 -47 -11 -14 -18 -28 -16 -32 4 -6 200
-498 313 -786 94 -240 270 -399 523 -476 41 -12 81 -28 87 -35 32 -31 222 -79
280 -70 10 2 41 -6 68 -16 121 -48 138 -48 1149 -48 533 1 971 5 996 10 78 16
84 18 141 39 121 46 240 135 320 241 38 49 167 287 174 320 0 3 15 33 32 67
l31 63 -25 -5 c-41 -7 -70 -31 -136 -113 -64 -79 -137 -155 -144 -148 -8 8
158 329 180 347 26 21 68 37 114 43 32 3 63 21 63 36 0 4 41 93 91 196 50 104
104 218 121 253 17 36 48 101 70 145 83 171 54 327 -69 365 -40 12 -58 25 -78
55 -41 60 -106 112 -196 154 -75 36 -151 57 -258 72 -41 6 -79 14 -85 19 -19
15 -109 41 -191 55 -63 11 -226 14 -760 14 -374 0 -695 1 -712 1 l-33 1 0 105
0 105 65 0 65 0 -1 120 c-1 67 0 122 2 125 3 2 34 3 69 3 36 0 575 -3 1198 -5
946 -3 1132 -1 1132 10 0 7 -6 36 -14 63 -46 155 -62 409 -37 564 6 36 11 68
11 73 0 4 -45 7 -101 7 -91 0 -100 2 -95 18 3 9 7 33 10 52 6 38 38 136 55
169 12 21 11 21 -169 21 l-181 0 16 30 c8 16 15 31 15 33 0 2 -429 3 -952 3
l-953 0 -5 41 -5 42 -60 -45 -60 -45 -3 162 c-1 89 0 164 2 167 3 2 67 3 143
2 439 -9 2383 -9 2383 -1 0 7 -39 191 -55 261 -8 32 -46 216 -51 244 -3 16 -6
32 -8 35 -2 3 -7 22 -10 42 -3 19 -15 75 -26 124 -11 49 -22 96 -24 104 -20
106 -30 139 -40 136 -6 -2 -24 -6 -41 -9 -16 -2 -49 -7 -71 -11 -41 -7 -42 -6
-52 26 -6 19 -19 74 -28 122 l-17 89 -44 -7 c-25 -4 -55 -9 -66 -11 -12 -3
-33 -7 -47 -9 -156 -27 -144 -30 -155 41 -3 24 -9 45 -13 48 -6 3 -93 -11
-242 -39 -14 -3 -63 -12 -110 -20 -115 -20 -109 -19 -420 -76 -766 -140 -938
-171 -972 -176 l-38 -6 0 161 c0 144 2 161 18 167 9 3 25 17 35 31 59 80 -12
200 -111 188 -44 -5 -67 -18 -92 -54 -33 -46 -24 -114 21 -154 l34 -30 0 -163
1 -162 -56 -11 c-30 -6 -74 -15 -97 -20 -76 -18 -70 -34 -72 209 -1 217 -1
220 21 238 22 17 39 47 51 84 8 24 -27 93 -56 112 -34 22 -84 22 -123 -2z
m332 -1443 c2 -16 -77 -84 -192 -165 l-31 -22 -1 102 -2 103 112 0 c98 -1 111
-3 114 -18z m-6 -1767 l0 -116 -82 2 c-46 1 -95 2 -109 2 l-26 1 -2 113 -1
113 110 0 110 1 0 -116z"/>
</g>
</svg>
